<?xml version="1.0" standalone="no"?><!DOCTYPE svg PUBLIC "-//W3C//DTD SVG 1.1//EN" "http://www.w3.org/Graphics/SVG/1.1/DTD/svg11.dtd"><svg t="1586330156739" class="icon" viewBox="0 0 1182 1024" version="1.1" xmlns="http://www.w3.org/2000/svg" p-id="2016" xmlns:xlink="http://www.w3.org/1999/xlink" width="55.40625" height="48"><defs><style type="text/css"></style></defs><path d="M504.242042 1023.999224a98.909016 98.909016 0 1 1 98.521138-98.521137A98.521137 98.521137 0 0 1 504.242042 1023.999224z m0-158.642304a60.121167 60.121167 0 1 0 59.733288 60.121167A59.733288 59.733288 0 0 0 504.242042 865.35692zM963.102301 1023.999224a98.909016 98.909016 0 1 1 98.909016-98.521137 98.521137 98.521137 0 0 1-98.909016 98.521137z m0-158.642304a60.121167 60.121167 0 1 0 60.121166 60.121167 59.733288 59.733288 0 0 0-60.121166-60.121167zM1017.40529 743.563073H441.793605a102.399922 102.399922 0 0 1-100.848409-87.272661L260.654348 92.70296A63.612073 63.612073 0 0 0 198.20591 38.787849H19.393925A19.393925 19.393925 0 0 1 0 19.393925 19.393925 19.393925 0 0 1 19.393925 0h178.811985a102.399922 102.399922 0 0 1 100.848409 87.272661l80.290848 563.587452a63.612073 63.612073 0 0 0 62.448438 53.915111h575.611685a62.836316 62.836316 0 0 0 62.060559-53.915111l63.612073-445.67239a62.836316 62.836316 0 0 0-62.060559-71.757521H511.611734a19.393925 19.393925 0 0 1-19.393925-19.393925 19.781803 19.781803 0 0 1 19.393925-19.393924h569.405629a101.624165 101.624165 0 0 1 100.46053 116.363548l-63.612073 445.284511a102.012044 102.012044 0 0 1-100.46053 87.272661z" p-id="2017" fill="#2c2c2c"></path></svg>