<?xml version="1.0" standalone="no"?><!DOCTYPE svg PUBLIC "-//W3C//DTD SVG 1.1//EN" "http://www.w3.org/Graphics/SVG/1.1/DTD/svg11.dtd"><svg t="1586330083341" class="icon" viewBox="0 0 1266 1024" version="1.1" xmlns="http://www.w3.org/2000/svg" p-id="1626" xmlns:xlink="http://www.w3.org/1999/xlink" width="59.34375" height="48"><defs><style type="text/css"></style></defs><path d="M1258.27092 572.363501L729.123315 40.146149a134.685141 134.685141 0 0 0-191.859176 0L5.814224 572.363501a18.418481 18.418481 0 0 0 0 26.860285 18.418481 18.418481 0 0 0 26.860284 0L563.740706 68.157588a97.080743 97.080743 0 0 1 136.220014 0l531.066198 531.066198a18.802199 18.802199 0 0 0 13.430142 5.755775 19.569636 19.569636 0 0 0 13.81386-5.755775 19.185918 19.185918 0 0 0 0-26.860285zM1029.574783 887.396267a97.848179 97.848179 0 0 1-97.464461 97.84818H331.974822a97.848179 97.848179 0 0 1-97.84818-97.84818V615.723675h-38.371835v272.05631a136.220015 136.220015 0 0 0 136.220015 136.220015h600.1355a136.220015 136.220015 0 0 0 135.836296-136.220015V615.723675h-38.371835z" p-id="1627" fill="#1296db"></path></svg>