<?xml version="1.0" standalone="no"?><!DOCTYPE svg PUBLIC "-//W3C//DTD SVG 1.1//EN" "http://www.w3.org/Graphics/SVG/1.1/DTD/svg11.dtd"><svg t="1586330257573" class="icon" viewBox="0 0 1024 1024" version="1.1" xmlns="http://www.w3.org/2000/svg" p-id="2546" xmlns:xlink="http://www.w3.org/1999/xlink" width="48" height="48"><defs><style type="text/css"></style></defs><path d="M875.354839 66.064516h-118.255484V16.516129a16.516129 16.516129 0 0 0-16.516129-16.516129 16.516129 16.516129 0 0 0-16.516129 16.516129V66.064516H299.932903V16.516129a16.516129 16.516129 0 0 0-16.516129-16.516129 16.516129 16.516129 0 0 0-16.516129 16.516129V66.064516H148.645161A82.580645 82.580645 0 0 0 66.064516 148.645161v792.774194A82.580645 82.580645 0 0 0 148.645161 1024h726.709678a82.580645 82.580645 0 0 0 82.580645-82.580645v-792.774194A82.580645 82.580645 0 0 0 875.354839 66.064516zM924.903226 941.419355a49.548387 49.548387 0 0 1-49.548387 49.548387h-726.709678A49.548387 49.548387 0 0 1 99.096774 941.419355v-792.774194A49.548387 49.548387 0 0 1 148.645161 99.096774h118.255484v49.548387a16.516129 16.516129 0 0 0 16.516129 16.516129 16.516129 16.516129 0 0 0 16.516129-16.516129V99.096774h424.134194v49.548387a16.516129 16.516129 0 0 0 16.516129 16.516129 16.516129 16.516129 0 0 0 16.516129-16.516129V99.096774h118.255484A49.548387 49.548387 0 0 1 924.903226 148.645161z" p-id="2547" fill="#1296db"></path><path d="M297.290323 330.322581H231.225806a16.516129 16.516129 0 0 0 0 33.032258h66.064517a16.516129 16.516129 0 1 0 0-33.032258zM792.774194 330.322581H396.387097a16.516129 16.516129 0 1 0 0 33.032258h396.387097a16.516129 16.516129 0 0 0 0-33.032258zM297.290323 528.516129H231.225806a16.516129 16.516129 0 0 0 0 33.032258h66.064517a16.516129 16.516129 0 1 0 0-33.032258zM792.774194 528.516129H396.387097a16.516129 16.516129 0 1 0 0 33.032258h396.387097a16.516129 16.516129 0 1 0 0-33.032258zM297.290323 726.709677H231.225806a16.516129 16.516129 0 0 0-16.516129 16.516129 16.516129 16.516129 0 0 0 16.516129 16.516129h66.064517a16.516129 16.516129 0 0 0 16.516129-16.516129 16.516129 16.516129 0 0 0-16.516129-16.516129zM792.774194 726.709677H396.387097a16.516129 16.516129 0 0 0-16.516129 16.516129 16.516129 16.516129 0 0 0 16.516129 16.516129h396.387097a16.516129 16.516129 0 0 0 16.516129-16.516129 16.516129 16.516129 0 0 0-16.516129-16.516129z" p-id="2548" fill="#1296db"></path></svg>