<?xml version="1.0" standalone="no"?><!DOCTYPE svg PUBLIC "-//W3C//DTD SVG 1.1//EN" "http://www.w3.org/Graphics/SVG/1.1/DTD/svg11.dtd"><svg t="1586330187577" class="icon" viewBox="0 0 1024 1024" version="1.1" xmlns="http://www.w3.org/2000/svg" p-id="2306" xmlns:xlink="http://www.w3.org/1999/xlink" width="48" height="48"><defs><style type="text/css"></style></defs><path d="M872.138167 591.271277a436.672398 436.672398 0 0 0-197.542276-113.291032c0-2.509611 2.509611-4.660707 3.58516-7.170319A250.961148 250.961148 0 0 0 739.487274 426.353951 248.451537 248.451537 0 1 0 389.217214 73.932796 240.922702 240.922702 0 0 0 345.119755 136.673083 236.979027 236.979027 0 0 0 281.662436 181.487574a248.451537 248.451537 0 0 0 0 350.987091 244.507862 244.507862 0 0 0 71.703186 50.550746A434.162787 434.162787 0 0 0 22.455422 1006.074204a17.925796 17.925796 0 0 0 17.925796 17.925796 17.925796 17.925796 0 0 0 17.925796-17.925796 398.66971 398.66971 0 0 1 681.18026-282.152034A396.160098 396.160098 0 0 1 856.00495 1006.074204a17.925796 17.925796 0 0 0 35.851593 0A434.162787 434.162787 0 0 0 560.229311 584.100959a244.507862 244.507862 0 0 0 71.703185-50.550746 182.12609 182.12609 0 0 0 20.793924-23.662051A399.028226 399.028226 0 0 1 963.559728 898.519426a17.925796 17.925796 0 0 0 17.925796 17.925796 17.925796 17.925796 0 0 0 17.925796-17.925796 430.219111 430.219111 0 0 0-127.273153-307.248149zM414.671845 100.462974a212.599944 212.599944 0 1 1 283.944613 315.135499v-4.302191l3.226644-18.642828v-10.755478-24.737599-27.605726c0-5.019223 0-9.67993-2.151096-14.340637s-1.79258-9.321414-2.868127-13.982121-1.79258-8.604382-3.226644-12.906573a195.032664 195.032664 0 0 0-8.245866-24.379083c0-3.226643-3.226643-6.094771-4.660707-9.321414s-5.019223-11.113994-7.88735-16.491733L667.784089 228.094644c-3.226643-5.019223-6.453287-10.396962-10.038446-15.416185l-6.453287-8.245866a185.352734 185.352734 0 0 0-17.56728-20.076892l-10.038446-8.962898A245.583409 245.583409 0 0 0 457.33524 109.784388a253.829276 253.829276 0 0 0-57.362548 6.811803 157.029976 157.029976 0 0 1 14.699153-16.133217z m42.663395 470.014379a212.599944 212.599944 0 0 1-150.576689-362.818117 215.109556 215.109556 0 0 1 45.173007-35.851592l12.906573-6.453287a211.524396 211.524396 0 0 1 215.109556 17.925796l3.943675 2.868128a238.054575 238.054575 0 0 1 22.945019 19.718376 221.921358 221.921358 0 0 1 24.737599 30.832369 76.363892 76.363892 0 0 1 5.736255 8.962898 215.109556 215.109556 0 0 1 13.265089 25.454631l4.302191 9.67993a233.035352 233.035352 0 0 1 8.962899 30.83237v5.377739a235.544963 235.544963 0 0 1 3.585159 38.71972V360.745537a215.109556 215.109556 0 0 1-3.585159 33.700497 121.895415 121.895415 0 0 1-2.509612 12.189541 150.218173 150.218173 0 0 1-6.811802 22.586504c-1.79258 5.377739-3.943675 10.755478-6.094771 16.133216a218.336199 218.336199 0 0 1-43.021911 63.457319 210.807365 210.807365 0 0 1-148.067078 61.664739z" p-id="2307" fill="#2c2c2c"></path></svg>